<svg xmlns="http://www.w3.org/2000/svg" xmlns:xlink="http://www.w3.org/1999/xlink" viewBox="0 0 650 650"><defs><style>.cls-1{fill:url(#Безымянный_градиент_263);}.cls-2{fill:url(#Безымянный_градиент_170);}.cls-3{fill:#fff;}.cls-4{fill:#e9ecf5;}.cls-14,.cls-44,.cls-5,.cls-6,.cls-9{fill:none;}.cls-44,.cls-5,.cls-6{stroke-linecap:round;}.cls-13,.cls-14,.cls-44,.cls-5,.cls-6,.cls-9{stroke-miterlimit:10;}.cls-5,.cls-6{stroke-width:10.58px;}.cls-5{stroke:url(#Безымянный_градиент_263-2);}.cls-6{stroke:url(#Безымянный_градиент_263-3);}.cls-7{fill:url(#Безымянный_градиент_35);}.cls-8{fill:#bcc0da;}.cls-13,.cls-14,.cls-9{stroke:#fff;}.cls-9{stroke-width:1.99px;}.cls-10{fill:#aeb1c9;}.cls-11{fill:#dee0ed;}.cls-12{fill:url(#Безымянный_градиент_6);}.cls-13{stroke-width:0.8px;fill:url(#Безымянный_градиент_35-2);}.cls-14{stroke-width:1.71px;}.cls-15{fill:url(#Безымянный_градиент_123);}.cls-16{fill:url(#Безымянный_градиент_123-2);}.cls-17{fill:url(#Безымянный_градиент_123-3);}.cls-18{fill:url(#Безымянный_градиент_123-4);}.cls-19{fill:url(#Безымянный_градиент_122);}.cls-20{fill:#1f1844;}.cls-21{fill:url(#Безымянный_градиент_48);}.cls-22{fill:url(#Безымянный_градиент_123-5);}.cls-23{fill:url(#Безымянный_градиент_157);}.cls-24{fill:#201f4f;}.cls-25{fill:url(#Безымянный_градиент_157-2);}.cls-26{fill:url(#Безымянный_градиент_48-2);}.cls-27{fill:url(#Безымянный_градиент_77);}.cls-28{fill:url(#Безымянный_градиент_83);}.cls-29{fill:url(#Безымянный_градиент_83-2);}.cls-30{fill:url(#Безымянный_градиент_98);}.cls-31{fill:url(#Безымянный_градиент_77-2);}.cls-32{fill:url(#Безымянный_градиент_9);}.cls-33{fill:url(#Безымянный_градиент_77-3);}.cls-34{fill:url(#Безымянный_градиент_139);}.cls-35{fill:url(#Безымянный_градиент_3);}.cls-36{fill:#d5527e;}.cls-37{fill:url(#Безымянный_градиент_250);}.cls-38{fill:url(#Безымянный_градиент_250-2);}.cls-39{fill:url(#Безымянный_градиент_48-3);}.cls-40{fill:url(#Безымянный_градиент_157-3);}.cls-41{fill:url(#Безымянный_градиент_61);}.cls-42{fill:url(#Безымянный_градиент_157-4);}.cls-43{fill:url(#Безымянный_градиент_29);}.cls-44{stroke:#201f4f;stroke-width:4.66px;}.cls-45{fill:url(#Безымянный_градиент_29-2);}.cls-46{fill:url(#Безымянный_градиент_29-3);}.cls-47{fill:url(#Безымянный_градиент_29-4);}.cls-48{fill:url(#Безымянный_градиент_29-5);}.cls-49{fill:url(#Безымянный_градиент_29-6);}.cls-50{fill:url(#Безымянный_градиент_29-7);}.cls-51{fill:url(#Безымянный_градиент_29-8);}.cls-52{fill:url(#Безымянный_градиент_29-9);}.cls-53{fill:url(#Безымянный_градиент_29-10);}.cls-54{fill:url(#Безымянный_градиент_29-11);}.cls-55{fill:url(#Безымянный_градиент_29-12);}.cls-56{fill:url(#Безымянный_градиент_29-13);}.cls-57{fill:url(#Безымянный_градиент_29-14);}.cls-58{fill:url(#Безымянный_градиент_29-15);}.cls-59{fill:url(#Безымянный_градиент_29-16);}.cls-60{fill:url(#Безымянный_градиент_29-17);}.cls-61{fill:url(#Безымянный_градиент_29-18);}.cls-62{fill:url(#Безымянный_градиент_29-19);}.cls-63{fill:url(#Безымянный_градиент_157-5);}.cls-64{fill:url(#Безымянный_градиент_96);}.cls-65{fill:url(#Безымянный_градиент_157-6);}.cls-66{fill:url(#Безымянный_градиент_16);}.cls-67{fill:url(#Безымянный_градиент_250-3);}.cls-68{fill:url(#Безымянный_градиент_250-4);}.cls-69{fill:url(#Безымянный_градиент_123-6);}.cls-70{fill:url(#Безымянный_градиент_123-7);}.cls-71{fill:url(#Безымянный_градиент_250-5);}.cls-72{fill:url(#Безымянный_градиент_250-6);}.cls-73{fill:url(#Безымянный_градиент_123-8);}.cls-74{fill:url(#Безымянный_градиент_250-7);}.cls-75{fill:url(#Безымянный_градиент_77-4);}.cls-76{fill:url(#Безымянный_градиент_29-20);}</style><linearGradient id="Безымянный_градиент_263" x1="43.63" y1="334.03" x2="627.68" y2="334.03" gradientUnits="userSpaceOnUse"><stop offset="0" stop-color="#f0f2f5"/><stop offset="0.99" stop-color="#f5f7f8"/></linearGradient><linearGradient id="Безымянный_градиент_170" x1="26.76" y1="258.03" x2="430.24" y2="258.03" gradientUnits="userSpaceOnUse"><stop offset="0.01" stop-color="#bbbfd9"/><stop offset="1" stop-color="#d6dbf8"/></linearGradient><linearGradient id="Безымянный_градиент_263-2" x1="292.36" y1="294.27" x2="404.17" y2="294.27" xlink:href="#Безымянный_градиент_263"/><linearGradient id="Безымянный_градиент_263-3" x1="292.36" y1="334.03" x2="404.17" y2="334.03" xlink:href="#Безымянный_градиент_263"/><linearGradient id="Безымянный_градиент_35" x1="479.55" y1="529.4" x2="588.93" y2="529.4" gradientUnits="userSpaceOnUse"><stop offset="0.01" stop-color="#bbbfd9"/><stop offset="0.69" stop-color="#cacee2"/><stop offset="1" stop-color="#d3d6e7"/></linearGradient><linearGradient id="Безымянный_градиент_6" x1="26.76" y1="509.64" x2="381.06" y2="509.64" gradientUnits="userSpaceOnUse"><stop offset="0" stop-color="#d3d6e7"/><stop offset="0.31" stop-color="#cacee2"/><stop offset="0.99" stop-color="#bbbfd9"/></linearGradient><linearGradient id="Безымянный_градиент_35-2" x1="39.96" y1="508.19" x2="367.86" y2="508.19" xlink:href="#Безымянный_градиент_35"/><linearGradient id="Безымянный_градиент_123" x1="167.48" y1="1880.47" x2="151.19" y2="1851.87" gradientTransform="translate(1753.39 -757.19) rotate(49.23)" gradientUnits="userSpaceOnUse"><stop offset="0" stop-color="#753200"/><stop offset="1" stop-color="#a04400"/></linearGradient><linearGradient id="Безымянный_градиент_123-2" x1="282.86" y1="1963.05" x2="266.57" y2="1934.45" gradientTransform="matrix(0.59, 0.81, -0.81, 0.59, 1916.13, -779.73)" xlink:href="#Безымянный_градиент_123"/><linearGradient id="Безымянный_градиент_123-3" x1="-71.11" y1="879.39" x2="-64.61" y2="879.39" gradientTransform="translate(806.49 -672.05) rotate(14.6)" xlink:href="#Безымянный_градиент_123"/><linearGradient id="Безымянный_градиент_123-4" x1="-140.27" y1="931.6" x2="-91.73" y2="903.86" gradientTransform="translate(806.49 -672.05) rotate(14.6)" xlink:href="#Безымянный_градиент_123"/><linearGradient id="Безымянный_градиент_122" x1="-107.64" y1="879.13" x2="-79.1" y2="860.69" gradientTransform="translate(806.49 -672.05) rotate(14.6)" gradientUnits="userSpaceOnUse"><stop offset="0" stop-color="#a04400" stop-opacity="0"/><stop offset="0.18" stop-color="#9a4100" stop-opacity="0.14"/><stop offset="0.52" stop-color="#8a3b00" stop-opacity="0.52"/><stop offset="0.9" stop-color="#753200"/></linearGradient><linearGradient id="Безымянный_градиент_48" x1="-68.41" y1="905.11" x2="-95.86" y2="932.05" gradientTransform="translate(806.49 -672.05) rotate(14.6)" gradientUnits="userSpaceOnUse"><stop offset="0" stop-color="#a04400"/><stop offset="1" stop-color="#753200"/></linearGradient><linearGradient id="Безымянный_градиент_123-5" x1="-67.96" y1="887.75" x2="-71.19" y2="890.91" gradientTransform="translate(806.49 -672.05) rotate(14.6)" xlink:href="#Безымянный_градиент_123"/><linearGradient id="Безымянный_градиент_157" x1="86.72" y1="572.72" x2="113.69" y2="572.72" gradientUnits="userSpaceOnUse"><stop offset="0" stop-color="#a96e46"/><stop offset="1" stop-color="#ffd0b9"/></linearGradient><linearGradient id="Безымянный_градиент_157-2" x1="123.64" y1="580.02" x2="162.89" y2="580.02" xlink:href="#Безымянный_градиент_157"/><linearGradient id="Безымянный_градиент_48-2" x1="-1170.34" y1="751.49" x2="-1195.2" y2="775.88" gradientTransform="translate(1637.74 -282.86) rotate(12.28)" xlink:href="#Безымянный_градиент_48"/><linearGradient id="Безымянный_градиент_77" x1="2394" y1="221.39" x2="2323.96" y2="205.79" gradientTransform="matrix(-1, 0, 0, 1, 2674.6, 0)" gradientUnits="userSpaceOnUse"><stop offset="0" stop-color="#401b00"/><stop offset="1" stop-color="#823700"/></linearGradient><linearGradient id="Безымянный_градиент_83" x1="2335.8" y1="202" x2="2365.06" y2="218.26" gradientTransform="matrix(-1, 0, 0, 1, 2674.6, 0)" gradientUnits="userSpaceOnUse"><stop offset="0" stop-color="#a04400"/><stop offset="1" stop-color="#3d1b00"/></linearGradient><linearGradient id="Безымянный_градиент_83-2" x1="-1170.4" y1="734.13" x2="-1177.12" y2="740.73" gradientTransform="translate(1637.74 -282.86) rotate(12.28)" xlink:href="#Безымянный_градиент_83"/><linearGradient id="Безымянный_градиент_98" x1="2324.24" y1="602.24" x2="2321.22" y2="560.19" gradientTransform="matrix(-1, 0, 0, 1, 2674.6, 0)" gradientUnits="userSpaceOnUse"><stop offset="0" stop-color="#823700"/><stop offset="1" stop-color="#401b00"/></linearGradient><linearGradient id="Безымянный_градиент_77-2" x1="2380.42" y1="558.17" x2="2387.49" y2="604.25" xlink:href="#Безымянный_градиент_77"/><linearGradient id="Безымянный_градиент_9" x1="2279.77" y1="442.64" x2="2415.01" y2="442.64" gradientTransform="matrix(-1, 0, 0, 1, 2674.6, 0)" gradientUnits="userSpaceOnUse"><stop offset="0.05" stop-color="#f7e5e3"/><stop offset="1" stop-color="#f7d6d2"/></linearGradient><linearGradient id="Безымянный_градиент_77-3" x1="2299.17" y1="359.88" x2="2320.03" y2="359.88" xlink:href="#Безымянный_градиент_77"/><linearGradient id="Безымянный_градиент_139" x1="2332.72" y1="253.91" x2="2374.92" y2="253.91" gradientTransform="matrix(-1, 0, 0, 1, 2674.6, 0)" gradientUnits="userSpaceOnUse"><stop offset="0" stop-color="#201f4f"/><stop offset="0.26" stop-color="#27275a"/><stop offset="0.72" stop-color="#393c76"/><stop offset="1" stop-color="#464b8b"/></linearGradient><linearGradient id="Безымянный_градиент_3" x1="90.38" y1="461.15" x2="191.47" y2="461.15" gradientUnits="userSpaceOnUse"><stop offset="0.09" stop-color="#d9d9d9"/><stop offset="0.12" stop-color="#d6d6d6"/><stop offset="0.7" stop-color="#aeaeae"/><stop offset="1" stop-color="#9f9f9f"/></linearGradient><linearGradient id="Безымянный_градиент_250" x1="2922.21" y1="597.99" x2="2957.54" y2="597.99" gradientTransform="matrix(-1, 0, 0, 1, 3432.37, 0)" gradientUnits="userSpaceOnUse"><stop offset="0" stop-color="#a7a5ee"/><stop offset="0.44" stop-color="#9d9ce8"/><stop offset="0.89" stop-color="#8988d5"/></linearGradient><linearGradient id="Безымянный_градиент_250-2" x1="2974.62" y1="592.32" x2="3039.44" y2="592.32" xlink:href="#Безымянный_градиент_250"/><linearGradient id="Безымянный_градиент_48-3" x1="1031.69" y1="276.27" x2="1006.7" y2="300.79" gradientTransform="matrix(-0.98, 0.21, 0.21, 0.98, 1059.88, -282.86)" xlink:href="#Безымянный_градиент_48"/><linearGradient id="Безымянный_градиент_157-3" x1="137.09" y1="215.15" x2="67.32" y2="199.61" gradientTransform="translate(23.01)" xlink:href="#Безымянный_градиент_157"/><linearGradient id="Безымянный_градиент_61" x1="83.05" y1="205.95" x2="112.46" y2="222.29" gradientTransform="translate(23.01)" gradientUnits="userSpaceOnUse"><stop offset="0" stop-color="#ffd0b9" stop-opacity="0"/><stop offset="1" stop-color="#a96e46"/></linearGradient><linearGradient id="Безымянный_градиент_157-4" x1="1031.64" y1="258.81" x2="1024.96" y2="265.36" gradientTransform="matrix(-0.98, 0.21, 0.21, 0.98, 1059.88, -282.86)" xlink:href="#Безымянный_градиент_157"/><linearGradient id="Безымянный_градиент_29" x1="60.33" y1="183.99" x2="126.07" y2="153.55" gradientTransform="translate(23.01)" gradientUnits="userSpaceOnUse"><stop offset="0.28" stop-color="#201f4f"/><stop offset="1" stop-color="#201f4f"/></linearGradient><linearGradient id="Безымянный_градиент_29-2" x1="116.45" y1="156.7" x2="123.28" y2="119.25" gradientTransform="matrix(1, 0, 0, 1, 0, 0)" xlink:href="#Безымянный_градиент_29"/><linearGradient id="Безымянный_градиент_29-3" x1="97.8" y1="152.47" x2="107.85" y2="152.47" gradientTransform="matrix(1, 0, 0, 1, 0, 0)" xlink:href="#Безымянный_градиент_29"/><linearGradient id="Безымянный_градиент_29-4" x1="98.99" y1="161.51" x2="109.03" y2="161.51" gradientTransform="matrix(1, 0, 0, 1, 0, 0)" xlink:href="#Безымянный_градиент_29"/><linearGradient id="Безымянный_градиент_29-5" x1="99.59" y1="170.26" x2="109.64" y2="170.26" gradientTransform="matrix(1, 0, 0, 1, 0, 0)" xlink:href="#Безымянный_градиент_29"/><linearGradient id="Безымянный_градиент_29-6" x1="101.86" y1="178.66" x2="111.9" y2="178.66" gradientTransform="matrix(1, 0, 0, 1, 0, 0)" xlink:href="#Безымянный_градиент_29"/><linearGradient id="Безымянный_градиент_29-7" x1="134.99" y1="140.94" x2="143.88" y2="140.94" gradientTransform="matrix(1, 0, 0, 1, 0, 0)" xlink:href="#Безымянный_градиент_29"/><linearGradient id="Безымянный_градиент_29-8" x1="135.81" y1="134.41" x2="144.7" y2="134.41" gradientTransform="matrix(1, 0, 0, 1, 0, 0)" xlink:href="#Безымянный_градиент_29"/><linearGradient id="Безымянный_градиент_29-9" x1="135.81" y1="127.74" x2="144.7" y2="127.74" gradientTransform="matrix(1, 0, 0, 1, 0, 0)" xlink:href="#Безымянный_градиент_29"/><linearGradient id="Безымянный_градиент_29-10" x1="131.36" y1="122.54" x2="140.26" y2="122.54" gradientTransform="matrix(1, 0, 0, 1, 0, 0)" xlink:href="#Безымянный_градиент_29"/><linearGradient id="Безымянный_градиент_29-11" x1="125.97" y1="118.09" x2="134.87" y2="118.09" gradientTransform="matrix(1, 0, 0, 1, 0, 0)" xlink:href="#Безымянный_градиент_29"/><linearGradient id="Безымянный_градиент_29-12" x1="117.77" y1="116.24" x2="126.66" y2="116.24" gradientTransform="matrix(1, 0, 0, 1, 0, 0)" xlink:href="#Безымянный_градиент_29"/><linearGradient id="Безымянный_градиент_29-13" x1="111.09" y1="116.24" x2="119.98" y2="116.24" gradientTransform="matrix(1, 0, 0, 1, 0, 0)" xlink:href="#Безымянный_градиент_29"/><linearGradient id="Безымянный_градиент_29-14" x1="105.4" y1="118.85" x2="114.29" y2="118.85" gradientTransform="matrix(1, 0, 0, 1, 0, 0)" xlink:href="#Безымянный_градиент_29"/><linearGradient id="Безымянный_градиент_29-15" x1="99.56" y1="121.53" x2="108.45" y2="121.53" gradientTransform="matrix(1, 0, 0, 1, 0, 0)" xlink:href="#Безымянный_градиент_29"/><linearGradient id="Безымянный_градиент_29-16" x1="97.8" y1="148.25" x2="106.69" y2="148.25" gradientTransform="matrix(1, 0, 0, 1, 0, 0)" xlink:href="#Безымянный_градиент_29"/><linearGradient id="Безымянный_градиент_29-17" x1="94.91" y1="141.84" x2="103.81" y2="141.84" gradientTransform="matrix(1, 0, 0, 1, 0, 0)" xlink:href="#Безымянный_градиент_29"/><linearGradient id="Безымянный_градиент_29-18" x1="94.09" y1="134.41" x2="102.98" y2="134.41" gradientTransform="matrix(1, 0, 0, 1, 0, 0)" xlink:href="#Безымянный_градиент_29"/><linearGradient id="Безымянный_градиент_29-19" x1="95.88" y1="127.74" x2="104.77" y2="127.74" gradientTransform="matrix(1, 0, 0, 1, 0, 0)" xlink:href="#Безымянный_градиент_29"/><linearGradient id="Безымянный_градиент_157-5" x1="146.01" y1="303.03" x2="188.63" y2="303.03" xlink:href="#Безымянный_градиент_157"/><linearGradient id="Безымянный_градиент_96" x1="72.37" y1="286.13" x2="128.13" y2="286.13" gradientUnits="userSpaceOnUse"><stop offset="0" stop-color="#ffd0b9"/><stop offset="1" stop-color="#a96e46"/></linearGradient><linearGradient id="Безымянный_градиент_157-6" x1="124.53" y1="295.11" x2="203.54" y2="295.11" xlink:href="#Безымянный_градиент_157"/><linearGradient id="Безымянный_градиент_16" x1="500.44" y1="203.16" x2="519.46" y2="203.16" gradientUnits="userSpaceOnUse"><stop offset="0.11" stop-color="#8988d5"/><stop offset="0.56" stop-color="#9d9ce8"/><stop offset="1" stop-color="#a7a5ee"/></linearGradient><linearGradient id="Безымянный_градиент_250-3" x1="422.61" y1="263.19" x2="496.51" y2="263.19" gradientTransform="matrix(1, 0, 0, 1, 0, 0)" xlink:href="#Безымянный_градиент_250"/><linearGradient id="Безымянный_градиент_250-4" x1="447.4" y1="294.87" x2="548.74" y2="294.87" gradientTransform="matrix(1, 0, 0, 1, 0, 0)" xlink:href="#Безымянный_градиент_250"/><linearGradient id="Безымянный_градиент_123-6" x1="458.34" y1="224.94" x2="485.81" y2="224.94" gradientTransform="matrix(1, 0, 0, 1, 0, 0)" xlink:href="#Безымянный_градиент_123"/><linearGradient id="Безымянный_градиент_123-7" x1="479.53" y1="298.01" x2="497.49" y2="298.01" gradientTransform="matrix(1, 0, 0, 1, 0, 0)" xlink:href="#Безымянный_градиент_123"/><linearGradient id="Безымянный_градиент_250-5" x1="449.39" y1="281.86" x2="478.84" y2="281.86" gradientTransform="matrix(1, 0, 0, 1, 0, 0)" xlink:href="#Безымянный_градиент_250"/><linearGradient id="Безымянный_градиент_250-6" x1="470.9" y1="256.55" x2="548.95" y2="256.55" gradientTransform="matrix(1, 0, 0, 1, 0, 0)" xlink:href="#Безымянный_градиент_250"/><linearGradient id="Безымянный_градиент_123-8" x1="501.15" y1="267.79" x2="516.42" y2="267.79" gradientTransform="matrix(1, 0, 0, 1, 0, 0)" xlink:href="#Безымянный_градиент_123"/><linearGradient id="Безымянный_градиент_250-7" x1="483.35" y1="253.28" x2="502.39" y2="253.28" gradientTransform="matrix(1, 0, 0, 1, 0, 0)" xlink:href="#Безымянный_градиент_250"/><linearGradient id="Безымянный_градиент_77-4" x1="191.33" y1="265.81" x2="251.86" y2="265.81" gradientTransform="matrix(1, 0, 0, 1, 0, 0)" xlink:href="#Безымянный_градиент_77"/><linearGradient id="Безымянный_градиент_29-20" x1="180.95" y1="473.54" x2="248.6" y2="473.54" gradientTransform="translate(223.19 -356.47) rotate(14.29)" xlink:href="#Безымянный_градиент_29"/></defs><title>1</title><g id="_01" data-name="01"><path class="cls-1" d="M607.73,345.67c-51.29-104.85-198-258.42-388.59-258.82C20.24,86.44,1,283.71,108.21,338.54S58.66,461.73,170.72,530.4c113.42,69.51,355.8,63,415.47,8.91S629.89,391,607.73,345.67Z"/><rect class="cls-2" x="26.76" y="123.94" width="403.47" height="268.18" rx="14.42" ry="14.42"/><rect class="cls-3" x="38.24" y="135.45" width="380.52" height="245.17" rx="8.61" ry="8.61"/><rect class="cls-4" x="89.29" y="160.96" width="181.05" height="96.47" rx="9" ry="9"/><rect class="cls-4" x="89.29" y="283.16" width="181.05" height="26.27" rx="13.14" ry="13.14"/><rect class="cls-4" x="89.29" y="320.89" width="181.05" height="26.27" rx="13.14" ry="13.14"/><path class="cls-4" d="M338,152h-.23a48.1,48.1,0,0,0-48.09,47.8H338Z"/><path class="cls-4" d="M297.66,209.1c0,.1,0,.2,0,.31a48.1,48.1,0,0,0,48.1,48.1H346V209.1Z"/><path class="cls-4" d="M346,161.31V209.1h47.87A48.09,48.09,0,0,0,346,161.31Z"/><path class="cls-4" d="M346,209.1v48.4a48.1,48.1,0,0,0,47.87-48.1c0-.1,0-.2,0-.31Z"/><line class="cls-5" x1="297.65" y1="294.27" x2="398.88" y2="294.27"/><line class="cls-6" x1="297.65" y1="334.03" x2="398.88" y2="334.03"/><path class="cls-7" d="M485.26,453H588.93a0,0,0,0,1,0,0V605.83a0,0,0,0,1,0,0H487.43a7.88,7.88,0,0,1-7.88-7.88V458.68A5.71,5.71,0,0,1,485.26,453Z"/><path class="cls-8" d="M588.93,453h25.58a15.18,15.18,0,0,1,15.18,15.18V597.94a7.88,7.88,0,0,1-7.88,7.88H588.93a0,0,0,0,1,0,0V453A0,0,0,0,1,588.93,453Z"/><line class="cls-9" x1="479.55" y1="502.56" x2="588.93" y2="502.56"/><line class="cls-9" x1="479.55" y1="555.21" x2="588.93" y2="555.21"/><rect class="cls-3" x="514.2" y="473.18" width="34.65" height="11.21" rx="5.6" ry="5.6"/><rect class="cls-3" x="514.2" y="523.79" width="34.65" height="11.21" rx="5.6" ry="5.6"/><rect class="cls-3" x="514.2" y="574.58" width="34.65" height="11.21" rx="5.6" ry="5.6"/><path class="cls-10" d="M499.93,400h99.53a0,0,0,0,1,0,0v53a0,0,0,0,1,0,0H493.14a0,0,0,0,1,0,0V406.77A6.8,6.8,0,0,1,499.93,400Z"/><path class="cls-8" d="M599.46,400h2.72a9.85,9.85,0,0,1,9.85,9.85v33.29a9.85,9.85,0,0,1-9.85,9.85h-2.72a0,0,0,0,1,0,0V400A0,0,0,0,1,599.46,400Z"/><path class="cls-11" d="M502,400h84.24a0,0,0,0,1,0,0v6.62a10.7,10.7,0,0,1-10.7,10.7H512.67A10.7,10.7,0,0,1,502,406.6V400A0,0,0,0,1,502,400Z"/><path class="cls-3" d="M531.52,400s-2.38-21.06,10.87-26.84h51s-13.76,11.2-12.91,26.84Z"/><rect class="cls-11" x="501.97" y="438.7" width="84.24" height="6.45" rx="3.23" ry="3.23"/><path class="cls-10" d="M593.35,400,592,395.83a6.82,6.82,0,0,0-6.49-4.71h-4l-1,8.85Z"/><rect class="cls-12" x="26.76" y="418.23" width="354.29" height="182.83" rx="6.73" ry="6.73"/><rect class="cls-13" x="39.96" y="429.85" width="327.9" height="156.69" rx="9.24" ry="9.24"/><line class="cls-14" x1="143.26" y1="429.85" x2="143.26" y2="585.52"/><line class="cls-14" x1="258.79" y1="429.85" x2="258.79" y2="585.52"/><polygon class="cls-15" points="436.24 568.15 431.47 581.03 433.3 594.34 436.87 597.51 451.86 593.01 455.54 587.32 451.7 567.14 436.24 568.15"/><polygon class="cls-16" points="491.09 569.82 486.17 578.94 484.2 593.85 489.2 599.12 504.52 595.92 508.68 590.56 506.58 570.14 491.09 569.82"/><path class="cls-17" d="M519.06,167.82c1.47-2.31,3.67-8.83,4.63-10.8-3.47-.42-7.72,3.83-8.51,6.86C516.09,164,518.28,166.92,519.06,167.82Z"/><path class="cls-18" d="M489.53,231.47c-9.9-.93-18.63-15.12-18.63-15.12a81.37,81.37,0,0,1,0-9.74l3-5.78,2.61.73.17-1.91c-.78-.1,4.06.86,3.1.62-6.77-1.72-17.1-7.33-19.26-18.81-1.52-8,2.19-14.81,2.77-19.35s-.89-8-1.13-13.17c-.3-6.65,3.28-14.5,6.71-16,15.47-7,40.68,4.14,40.68,4.14s8.3,4.92,2.69,22.77c1-.49-1.26,3.16,0,3.06a7.81,7.81,0,0,1,6.15,1.83c3,2.93,2.32,9.15-5.17,16.93l-.26.28a41,41,0,0,0-.92,5.16c0,.26-.07.53-.1.8-.4,3.2-.91,7.35-1.4,11.36-.71,5.79-1.09,10.8-1.27,12.74C508.84,216.67,499.43,232.41,489.53,231.47Z"/><path class="cls-19" d="M512.29,159.8C517.9,141.95,509.6,137,509.6,137s-25.22-11.16-40.68-4.14c-2.42,1.09-3.23,4.58-4.09,7.53,6.32-3.93,17.76-.63,26.94.76,4.39.67,1.84,5.14,3,5.51,10-.57,15.83,5.13,12.4,18.72l5-2.58C511.17,162.71,513.22,159.32,512.29,159.8Z"/><path class="cls-20" d="M524.35,156.05c1-3.14,1.21-6.65,1.35-11.47.31-10.41-5.22-16.24-15.06-20.78l-9.55-3.71c-.87-.34-17.06-5.84-25.93-3.33-3.33.94-8.19,4.08-8.86,6.84-1.71,7-2.83,10.76-2.61,16.52,7.11-13.49,10.37,5.32,32.18-4.63,4-1.84,1.85,5.14,3,5.51,11.28-.65,17.27,6.69,10.62,24.33,3.12-.9,5.29-2.1,7-1.89C519.27,161.42,523.85,157.7,524.35,156.05Z"/><path class="cls-21" d="M512,187.86c-9.55,12.43-23.69,15.95-32.33,16.72l-2.85-2.08c-.78-.1,4-2,3-2.24,6.46-3.17,24.5-12.19,33.44-18.65l-.26.28a41,41,0,0,0-.92,5.16C512,187.31,512,187.58,512,187.86Z"/><path class="cls-20" d="M511.61,165c.42-.28,1.65-.92,1.65-.92l.1-3.55-5.55,1.92a3,3,0,0,0-2,2.44l-1.51,12.31c-7.6,2.31-25.53,10-28.48,9.7-3.74-.33-3.77-5.12-6-4.59s-2.62,3.3-4,3c-.7-.18-4.52-4.24-5.52-6.56,0,0,.35,8.2.5,9.66.35,3.39,5.47,11.39,5.47,11.39a3.27,3.27,0,0,0,2.39,1.6l8.72,1.18,4.94-1.53c6.81-1.86,24-11.72,24.55-13.54C510.06,176.83,507.45,167.81,511.61,165Z"/><path class="cls-22" d="M512.23,168.72s2.83-3.08,4.27-.32-1.78,6.82-1.78,6.82Z"/><path class="cls-23" d="M113.69,554.49c-4.41,8.42-8.23,14.11-11.94,17.16-5.33,4.39-7.18,22.32-5.62,29.4a2,2,0,0,1-.36-.06c-5.7-.7-8.1-7.87-7.49-18.38A86,86,0,0,0,86.74,562a.15.15,0,0,1,0-.06l12.41-17.59C103.81,548.43,106.72,552.78,113.69,554.49Z"/><path class="cls-24" d="M107,611.24s-18.83,1.88-24.8-2.52-3.29-10.51-3.92-19.77-3.61-11-3.61-11l-7.06,7.21-3.6-3.6s5.48-8.47,10.19-14.29c3.33-4.1,9.36-5.06,12.58-5.27a86,86,0,0,1,1.54,20.6c-.6,10.51,1.79,17.68,7.49,18.38,2.58,1.07,6.5.9,9.3,1.77C109.16,604,107,611.24,107,611.24Z"/><path class="cls-25" d="M162.89,598.68H157c-4.28,0-15.82-5.44-20.75-11.85s-7.85-6.24-7.85-6.24l-.36-1.4-4.38-17.83h19.17c1.22,5.92,3.39,15.92,5.29,21.64,2.35,7.08,11.09,13.27,13.91,15.11a0,0,0,0,1,0,0Z"/><path class="cls-24" d="M181.59,611.82s-32.67,3-34.15-1.64-12.33-11-12.33-11v12.64H129.2s-3.79-11.66-4.12-20.71a23.29,23.29,0,0,1,2.21-10.59s4.7-3.22,9.63,3.19,15.78,15,20.06,15h5.92l-.87-.55c6.21,2.27,11,5.64,15.61,6.79C184.86,606.73,181.59,611.82,181.59,611.82Z"/><path class="cls-26" d="M333.83,203.66a40.45,40.45,0,0,1-29,17.51l.08-1.56.1-1.91c8.33-2.46,18.29-8.22,29.89-20.3l-.25.28a40.79,40.79,0,0,0-.71,5.17C333.88,203.12,333.85,203.39,333.83,203.66Z"/><path class="cls-27" d="M282.42,199.37c2.61,11.34,13.11,16.49,19.92,17.94.65.13,1.27.23,1.84.29.28,0,.53.07.78.09l-.09,1.92-.17,2.44-.15,2.16-9.28,61.64a2.85,2.85,0,0,0,4.41,3c9.72-6.78,31.32-57.57,31.52-61,0,0,1-5.22,2.38-21.1.08-1,.17-2,.26-3.1,0-.28.06-.54.07-.8,0-.53.12-1.18.19-1.82a23.9,23.9,0,0,1,.52-3.35,2.4,2.4,0,0,0,.25-.29c3.8-4.29,6.49-8.32,6.65-11.36a13.82,13.82,0,0,0-.48-5c-.57-1.86-.83-27.48-2.49-28.5-6.89-4.27-15.56-4.14-32.59-7.22-8.23-1.49-14.59,2.81-18.22,5.36-2.74,1.92-4,11.71-4.2,18.73h0c.52,3.7,1.16,7.25.86,10.59C284,184.55,280.59,191.47,282.42,199.37Z"/><path class="cls-28" d="M304.87,219.62s19.18-2.24,28.7-12.85c.08-1,.17-2,.26-3.1,0-.28.06-.54.07-.8,0-.53.12-1.18.19-1.82-11.64,9.4-21.54,14.31-29.91,16.57.28,0,.53.07.78.09Z"/><path class="cls-29" d="M333.32,184.61s2.7-3.18,4.23-.49-1.49,6.86-1.49,6.86Z"/><path class="cls-30" d="M359.08,603.8c-1,2-19-2.89-19-2.89l.41-1.8,5.16-22.54a92.66,92.66,0,0,0-1.43-19.8c5.34,2.86,16.94.79,16.94.79s-1.08,7.6.16,10.06a7.81,7.81,0,0,1,.57,1.71,35.3,35.3,0,0,1,.13,11.89c-.47,2.54-1.14,10.09-1.82,15.81h0A35.87,35.87,0,0,1,359.08,603.8Z"/><path class="cls-24" d="M360.55,596h0c-.11.4-.21.75-.3,1.08.68-5.72,1.35-13.27,1.82-15.81a35.3,35.3,0,0,0-.13-11.89,9.24,9.24,0,0,1,2.54,6.78C364.33,580.06,362,590.85,360.55,596Z"/><path class="cls-24" d="M360.65,607.25c-1.7,5.06-9.34,9.85-15.67,8.95-5.88-.84-10.17-9.31-4.45-17.08l-.41,1.8s18,4.84,19,2.89a35.87,35.87,0,0,0,1.16-6.75h0c.09-.33.84-6.5,1-6.9C361.79,593.82,361.6,604.42,360.65,607.25Z"/><path class="cls-31" d="M277.44,597.61c0,1.49,8,5.3,10,6s6.07-2.16,5.9-7.63,9.62-27.53,10.12-28.86c.37-1-.52-2-1-2.53-.18-.18-.31-.29-.31-.29l1.32-6.64-18.06-3.81s-1.17,10.45-1.84,13.43-.5,8.13-1.49,13.4c-.91,4.78-4,13.59-4.56,16.32A3.38,3.38,0,0,0,277.44,597.61Z"/><path class="cls-24" d="M268.66,612.21c2.66,1.82,14.76-1,20.57-2.33s6.13-10.95,6.47-14.59c.15-1.69,2.14-5.34,4.53-9.23h0c1.54-2.51,3.23-5.11,4.72-7.31h0c.6-.92,1.16-1.76,1.66-2.52a5.22,5.22,0,0,0,.7-4.2c-1.1-4.23-3.11-6.37-4.84-7.44.5.49,1.38,1.55,1,2.53-.5,1.33-10.28,23.39-10.12,28.86s-3.85,8.3-5.9,7.63-10-4.48-10-6a3.38,3.38,0,0,1,.09-.64C273.62,601.28,266.51,610.73,268.66,612.21Z"/><path class="cls-24" d="M299.75,599.93H302l2.95-21.19c-1.48,2.21-3.17,4.81-4.72,7.31h0Z"/><path class="cls-32" d="M285.33,325.56C271,368.61,275.11,456,275.11,456l8.42,104.37H306c5.5-63.1-1.7-101-1.7-101l8.07-69.26,11.22,70.6,18.51,99.66h22.87c.67-16.82-3.71-58.86-12.46-103,6.73-39,8.42-48.54,5.73-82s-19.51-50.46-19.51-50.46Z"/><path class="cls-24" d="M332.64,225.32l-17.49,13.45L299.68,282.5v66.59l51.6-5.46-9.4-22.74,8.26-42.09,22.2,37.34-9.42,25.56,14.8,13.45,20.42-38.35S390.5,250.21,332.64,225.32Z"/><path class="cls-24" d="M303.71,223.3l.4,2,1.84,9.19-6.28,48v66.59l-25.12-3s13-41.66,10.77-46.14-6.73-18.84-6.73-18.84l-30.5,23.41a5,5,0,0,1-8-3.59L238.7,282.5S279.86,253,283,237.74C299.68,226.64,303.71,223.3,303.71,223.3Z"/><path class="cls-33" d="M365,343.63l-4.64,8.5-5.82,3,3.7,21s7.84-4.83,9.86-8.87,1.18-5.72,1.18-5.72l6.12-8.47Z"/><polygon class="cls-34" points="332.64 225.32 341.88 225.32 341.15 236.61 326.74 241.49 328.07 250.24 299.68 282.5 315.15 238.77 332.64 225.32"/><path class="cls-35" d="M176.59,352.86c-4.72,1.72-4.88-1.16-18.09,1.74-3.42.76-6.78,4.56-10.55,4.76-22.69,1.22-36.07-5.48-46.39-8.72-3.43,8-9.93,35.61-2.95,65.87,8.59,37.23,11.1,69.74,15,96.83-13.3,22.46-23.22,41.27-23.22,41.27a37,37,0,0,0,6.22,7,25,25,0,0,0,10.13,5.55,17.63,17.63,0,0,0,3.15.49c1.62-5,5.17-11.37,10-18.49a217.54,217.54,0,0,0,5.8,22.54h20.17s-4.05-20.94-6.75-47.81c25.22-30.73,43-45,49.92-57.45C198.25,449.75,178.68,380.92,176.59,352.86ZM158.93,459c-8.14,7.92-16.77,12.72-22.19,22.21.17-12.35,1.5-64.7,6.52-85.68C145.69,412.64,153.34,430,158.93,459Z"/><path class="cls-36" d="M182.83,350.5a143.14,143.14,0,0,1-24,7.47A66.24,66.24,0,0,1,148,359.36c-22.69,1.22-42.12-6.47-52.44-9.71,2.18-5.37,14.56-39.68,13.62-46.62,3,3-1.25,1.21,2.14,2.49l.63.24c15.89,5.91,28,6.84,38.62-2.75,2.57-2.31,4.8-4.44,6.7-6.34a74.29,74.29,0,0,0,15.18-1c-.34,2.09-2.43,9.91-.57,18.81C174.51,327.51,181.74,347.44,182.83,350.5Z"/><path class="cls-20" d="M510.16,593.42s4.55,2-4.11,22c-2,4.68-11.19,7.46-20.14,7.21s-12.8-1.62-13.43-4.1,4.72-10.5,4.72-10.5Z"/><path class="cls-37" d="M510.08,591.43s.09-4.25-1.85-5.24c-.9,5-3.33,1.12-6.1-1.71-2.39-2.45-3.35-4.48-7.92-4.83s-6,3.36-7.92,4.83c-3.39,2.61-3.46,1.07-4.54,4.9-1,3.39-3.91,15.77-6.53,20.74a2.94,2.94,0,0,0,.43,3.47c4.25,4.19,13.85,2.66,19.11,1.79,6-1,11.35-4.72,13.67-12.67S510.08,591.43,510.08,591.43Z"/><path class="cls-20" d="M457.57,596.82v5.74a4.08,4.08,0,0,1-3.52,4.05c-4,.56-10.51,1.5-14,2.19-5.35,1-18.14,5.7-25.35,6.16s-15.35.58-19-1.74-2.79-7.79-2.79-7.79Z"/><path class="cls-38" d="M455.49,581.48s3.72,14.19,1.63,16.28-17.79,3.14-22,5.81-21.28,6.86-30.35,6.16-11.63-1.86-11.86-4.3,18-5.81,21.28-8.26,5.23-11,9.77-14,1-8.14,5.81-8.37,3.49,7.44,10.58,7.91A63.79,63.79,0,0,0,455.49,581.48Z"/><path class="cls-39" d="M111.06,207.62a40.67,40.67,0,0,0,29.2,17.6l-.08-1.56-.1-1.92c-8.38-2.47-18.39-8.27-30.05-20.41l.25.29a41,41,0,0,1,.71,5.2C111,207.08,111,207.34,111.06,207.62Z"/><path class="cls-40" d="M162.75,203.31c-2.62,11.4-13.18,16.58-20,18-.66.13-1.28.23-1.85.3-.28,0-.54.07-.79.09l.09,1.93.18,2.45.15,2.18L143.32,263a2.87,2.87,0,0,1-4.44,3c-9.77-6.81-25.88-23.47-26.08-26.92,0,0-.11-12.37-1.49-28.33-.08-1-.17-2-.26-3.12,0-.28-.06-.55-.07-.81,0-.54-.12-1.19-.19-1.83a24,24,0,0,0-.52-3.37,2.42,2.42,0,0,1-.25-.29,31.65,31.65,0,0,1-4.77-6.84,10.07,10.07,0,0,1-.56-7.41v0a8.11,8.11,0,0,1,3.39-4.58c6.93-4.3,10-41.64,38-22.92,1.39-.38,8.12-2.83,11.77-.26,2.75,1.93,2.51,7.67,3.82,13.89h0c-.53,3.72-1.17,7.29-.86,10.65C161.16,188.41,164.59,195.36,162.75,203.31Z"/><path class="cls-41" d="M140.17,223.66s-19.29-2.25-28.85-12.92c-.08-1-.17-2-.26-3.12,0-.28-.06-.55-.07-.81,0-.54-.12-1.19-.19-1.83,11.7,9.45,21.66,14.39,30.07,16.66-.28,0-.54.07-.79.09Z"/><path class="cls-42" d="M111.57,188.47s-2.71-3.2-4.25-.5,1.5,6.9,1.5,6.9Z"/><path class="cls-43" d="M162.1,169.2c-.12,1.34-.29,2.68-.47,4-.6-2.31-3.44-10.25-6-12.39-1.81-1.52-3.32,3-5.83,1.86-4.37-1.91-5-3.34-10.5-2.83a51.7,51.7,0,0,1-6.75,2.06c-2.47.44-3.57-2.65-4.13,0s-.55,6.22-3.57,6.22-5,1.93-5.23,3.85,4.84,8.85,2.28,10.56c-2.94,1.94-5.06,9.22-5.06,9.22s-3.55-12.8-10.76-7.43c-2-6.22-1.37-7.37-1.37-14.93,0-2.6.58-11.07,1.27-13.75,3.6-13.9,21.85-17.47,33.56-16.66S163.22,156.17,162.1,169.2Z"/><path class="cls-44" d="M90.9,115.22l2.41.49a1.33,1.33,0,0,1,.94.76l.31.7a1.31,1.31,0,0,0,1.25.79l1.78-.1a1.3,1.3,0,0,1,1.31,1.64l-.1.33a1.3,1.3,0,0,0,1.16,1.64l1.08.07a1.31,1.31,0,0,1,1.21,1.38l0,.24a1.31,1.31,0,0,0,.84,1.3,25.51,25.51,0,0,1,3.6,1.56c.16.2-.35,1.41-.76,2.32a1.27,1.27,0,0,0,.55,1.61c1.19.68,2.93,1.79,2.65,2.32a18.77,18.77,0,0,1-2.58,2.66,1.23,1.23,0,0,0,.24,1.93l1.76,1.14a1.24,1.24,0,0,1,.27,1.9l-1.73,1.71a1.23,1.23,0,0,0,.13,1.81l2,1.73a1.26,1.26,0,0,1,.33,1.55l-1.47,2.7a1.21,1.21,0,0,0,0,1.09l1.68,3.63"/><path class="cls-44" d="M92.36,123.76l2.41-.46a1.33,1.33,0,0,1,1.16.35l.55.53a1.31,1.31,0,0,0,1.46.25l1.61-.76a1.3,1.3,0,0,1,1.84,1l0,.34a1.3,1.3,0,0,0,1.7,1.08l1-.34a1.31,1.31,0,0,1,1.64.82l.08.23a1.31,1.31,0,0,0,1.27.88,25.51,25.51,0,0,1,3.92.08c.22.12.21,1.43.17,2.44a1.27,1.27,0,0,0,1.12,1.28c1.36.18,3.39.55,3.33,1.14a18.77,18.77,0,0,1-1.38,3.44,1.23,1.23,0,0,0,1,1.7l2.06.39a1.24,1.24,0,0,1,1,1.66l-1,2.23a1.23,1.23,0,0,0,.81,1.62l2.55.82a1.26,1.26,0,0,1,.89,1.31l-.34,3.06a1.21,1.21,0,0,0,.39,1l2.93,2.72"/><path class="cls-44" d="M101.19,110.51l2.41.49a1.33,1.33,0,0,1,.94.76l.31.7a1.31,1.31,0,0,0,1.25.79l1.78-.1a1.3,1.3,0,0,1,1.31,1.64l-.1.33a1.3,1.3,0,0,0,1.16,1.64l1.08.07a1.31,1.31,0,0,1,1.21,1.38l0,.24a1.31,1.31,0,0,0,.84,1.3,25.51,25.51,0,0,1,3.6,1.56c.16.2-.35,1.41-.76,2.32a1.27,1.27,0,0,0,.55,1.61c1.19.68,2.93,1.79,2.65,2.32a18.77,18.77,0,0,1-2.58,2.66,1.23,1.23,0,0,0,.24,1.93l1.76,1.14a1.24,1.24,0,0,1,.27,1.9l-1.73,1.71a1.23,1.23,0,0,0,.13,1.81l2,1.73a1.26,1.26,0,0,1,.33,1.55l-1.47,2.7a1.21,1.21,0,0,0,0,1.09l1.68,3.63"/><path class="cls-44" d="M110.54,108.5l2.12,1.25a1.33,1.33,0,0,1,.64,1l.06.77a1.31,1.31,0,0,0,.93,1.15l1.71.49a1.3,1.3,0,0,1,.7,2l-.2.28a1.3,1.3,0,0,0,.56,1.93l1,.42a1.31,1.31,0,0,1,.69,1.7l-.1.22a1.31,1.31,0,0,0,.37,1.5,25.51,25.51,0,0,1,2.89,2.65c.09.24-.79,1.22-1.48,1.94a1.27,1.27,0,0,0,0,1.7c.9,1,2.18,2.65,1.74,3.06a18.77,18.77,0,0,1-3.31,1.67,1.23,1.23,0,0,0-.41,1.9l1.29,1.66a1.24,1.24,0,0,1-.37,1.89l-2.19,1a1.23,1.23,0,0,0-.47,1.75l1.37,2.31a1.26,1.26,0,0,1-.2,1.57l-2.28,2.07a1.21,1.21,0,0,0-.38,1l.4,4"/><path class="cls-44" d="M130.43,109.52,128,110a1.33,1.33,0,0,0-.94.76l-.31.7a1.31,1.31,0,0,1-1.25.79l-1.78-.1a1.3,1.3,0,0,0-1.31,1.64l.1.33a1.3,1.3,0,0,1-1.16,1.64l-1.08.07a1.31,1.31,0,0,0-1.21,1.38l0,.24a1.31,1.31,0,0,1-.84,1.3,25.51,25.51,0,0,0-3.6,1.56c-.16.2.35,1.41.76,2.32a1.27,1.27,0,0,1-.55,1.61c-1.19.68-2.93,1.79-2.65,2.32a18.77,18.77,0,0,0,2.58,2.66,1.23,1.23,0,0,1-.24,1.93l-1.76,1.14a1.24,1.24,0,0,0-.27,1.9l1.73,1.71a1.23,1.23,0,0,1-.13,1.81l-2,1.73a1.26,1.26,0,0,0-.33,1.55l1.47,2.7a1.21,1.21,0,0,1,0,1.09l-1.68,3.63"/><path class="cls-44" d="M121.09,107.51,119,108.76a1.33,1.33,0,0,0-.64,1l-.06.77a1.31,1.31,0,0,1-.93,1.15l-1.71.49a1.3,1.3,0,0,0-.7,2l.2.28a1.3,1.3,0,0,1-.56,1.93l-1,.42a1.31,1.31,0,0,0-.69,1.7l.1.22a1.31,1.31,0,0,1-.37,1.5,25.51,25.51,0,0,0-2.89,2.65c-.09.24.79,1.22,1.48,1.94a1.27,1.27,0,0,1,0,1.7c-.9,1-2.18,2.65-1.74,3.06a18.77,18.77,0,0,0,3.31,1.67,1.23,1.23,0,0,1,.41,1.9l-1.29,1.66a1.24,1.24,0,0,0,.37,1.89l2.19,1a1.23,1.23,0,0,1,.47,1.75l-1.37,2.31a1.26,1.26,0,0,0,.2,1.57l2.28,2.07a1.21,1.21,0,0,1,.38,1l-.4,4"/><path class="cls-44" d="M141.31,117l-2.41.49a1.33,1.33,0,0,0-.94.76l-.31.7a1.31,1.31,0,0,1-1.25.79l-1.78-.1a1.3,1.3,0,0,0-1.31,1.64l.1.33a1.3,1.3,0,0,1-1.16,1.64l-1.08.07a1.31,1.31,0,0,0-1.21,1.38l0,.24a1.31,1.31,0,0,1-.84,1.3,25.51,25.51,0,0,0-3.6,1.56c-.16.2.35,1.41.76,2.32a1.27,1.27,0,0,1-.55,1.61c-1.19.68-2.93,1.79-2.65,2.32a18.77,18.77,0,0,0,2.58,2.66,1.23,1.23,0,0,1-.24,1.93l-1.76,1.14a1.24,1.24,0,0,0-.27,1.9l1.73,1.71a1.23,1.23,0,0,1-.13,1.81L123,147a1.26,1.26,0,0,0-.33,1.55l1.47,2.7a1.21,1.21,0,0,1,0,1.09l-1.68,3.63"/><path class="cls-44" d="M134.57,112l-2.12,1.25a1.33,1.33,0,0,0-.64,1l-.06.77a1.31,1.31,0,0,1-.93,1.15l-1.71.49a1.3,1.3,0,0,0-.7,2l.2.28a1.3,1.3,0,0,1-.56,1.93l-1,.42a1.31,1.31,0,0,0-.69,1.7l.1.22a1.31,1.31,0,0,1-.37,1.5,25.51,25.51,0,0,0-2.89,2.65c-.09.24.79,1.22,1.48,1.94a1.27,1.27,0,0,1,0,1.7c-.9,1-2.18,2.65-1.74,3.06a18.77,18.77,0,0,0,3.31,1.67,1.23,1.23,0,0,1,.41,1.9l-1.29,1.66a1.24,1.24,0,0,0,.37,1.89l2.19,1a1.23,1.23,0,0,1,.47,1.75L127,146.27a1.26,1.26,0,0,0,.2,1.57l2.28,2.07a1.21,1.21,0,0,1,.38,1l-.4,4"/><path class="cls-44" d="M147,122.38l-2.41.49a1.33,1.33,0,0,0-.94.76l-.31.7a1.31,1.31,0,0,1-1.25.79l-1.78-.1a1.3,1.3,0,0,0-1.31,1.64l.1.33a1.3,1.3,0,0,1-1.16,1.64l-1.08.07a1.31,1.31,0,0,0-1.21,1.38l0,.24a1.31,1.31,0,0,1-.84,1.3,25.51,25.51,0,0,0-3.6,1.56c-.16.2.35,1.41.76,2.32a1.27,1.27,0,0,1-.55,1.61c-1.19.68-2.93,1.79-2.65,2.32a18.77,18.77,0,0,0,2.58,2.66,1.23,1.23,0,0,1-.24,1.93l-1.76,1.14a1.24,1.24,0,0,0-.27,1.9l1.73,1.71a1.23,1.23,0,0,1-.13,1.81l-2,1.73a1.26,1.26,0,0,0-.33,1.55l1.47,2.7a1.21,1.21,0,0,1,0,1.09l-1.68,3.63"/><path class="cls-44" d="M149.39,131.63l-2.35-.71a1.33,1.33,0,0,0-1.19.23l-.61.47a1.31,1.31,0,0,1-1.48.1l-1.52-.93a1.3,1.3,0,0,0-1.93.83l-.07.34a1.3,1.3,0,0,1-1.8.9l-1-.44a1.31,1.31,0,0,0-1.72.64l-.1.22a1.31,1.31,0,0,1-1.35.74,25.51,25.51,0,0,0-3.91-.33c-.23.1-.36,1.41-.43,2.41a1.27,1.27,0,0,1-1.25,1.16c-1.37,0-3.43.19-3.43.79a18.77,18.77,0,0,0,1,3.57,1.23,1.23,0,0,1-1.12,1.59l-2.09.18a1.24,1.24,0,0,0-1.14,1.55l.71,2.32a1.23,1.23,0,0,1-1,1.53l-2.62.55a1.26,1.26,0,0,0-1,1.21l0,3.08a1.21,1.21,0,0,1-.5,1l-3.19,2.4"/><path class="cls-44" d="M137.68,120.37l-2.12,1.25a1.33,1.33,0,0,0-.64,1l-.06.77a1.31,1.31,0,0,1-.93,1.15l-1.71.49a1.3,1.3,0,0,0-.7,2l.2.28a1.3,1.3,0,0,1-.56,1.93l-1,.42a1.31,1.31,0,0,0-.69,1.7l.1.22a1.31,1.31,0,0,1-.37,1.5,25.51,25.51,0,0,0-2.89,2.65c-.09.24.79,1.22,1.48,1.94a1.27,1.27,0,0,1,0,1.7c-.9,1-2.18,2.65-1.74,3.06a18.77,18.77,0,0,0,3.31,1.67,1.23,1.23,0,0,1,.41,1.9l-1.29,1.66a1.24,1.24,0,0,0,.37,1.89l2.19,1a1.23,1.23,0,0,1,.47,1.75l-1.37,2.31a1.26,1.26,0,0,0,.2,1.57l2.28,2.07a1.21,1.21,0,0,1,.38,1l-.4,4"/><path class="cls-44" d="M98.81,116.33l2.41-.46a1.33,1.33,0,0,1,1.16.35l.55.53a1.31,1.31,0,0,0,1.46.25l1.61-.76a1.3,1.3,0,0,1,1.84,1l0,.34a1.3,1.3,0,0,0,1.7,1.08l1-.34a1.31,1.31,0,0,1,1.64.82l.08.23a1.31,1.31,0,0,0,1.27.88,25.51,25.51,0,0,1,3.92.08c.22.12.21,1.43.17,2.44a1.27,1.27,0,0,0,1.12,1.28c1.36.18,3.39.55,3.33,1.14a18.77,18.77,0,0,1-1.38,3.44,1.23,1.23,0,0,0,1,1.7l2.06.39a1.24,1.24,0,0,1,1,1.66l-1,2.23a1.23,1.23,0,0,0,.81,1.62l2.55.82a1.26,1.26,0,0,1,.89,1.31l-.34,3.06a1.21,1.21,0,0,0,.39,1l2.93,2.72"/><path class="cls-44" d="M86.29,128.7l2.41-.47a1.33,1.33,0,0,1,1.16.34l.56.53a1.31,1.31,0,0,0,1.46.25l1.6-.77a1.3,1.3,0,0,1,1.84,1l0,.34a1.3,1.3,0,0,0,1.7,1.07l1-.34a1.31,1.31,0,0,1,1.64.81l.08.23a1.31,1.31,0,0,0,1.27.88,25.51,25.51,0,0,1,3.92.06c.22.12.22,1.43.18,2.44a1.27,1.27,0,0,0,1.13,1.27c1.36.17,3.39.53,3.34,1.13a18.77,18.77,0,0,1-1.37,3.45,1.23,1.23,0,0,0,1,1.69l2.06.38a1.24,1.24,0,0,1,1,1.66l-.94,2.24a1.23,1.23,0,0,0,.81,1.62l2.56.81a1.26,1.26,0,0,1,.9,1.3l-.33,3.06a1.21,1.21,0,0,0,.4,1l2.94,2.71"/><path class="cls-44" d="M86.31,135l2.05-1.35a1.33,1.33,0,0,1,1.21-.12l.72.28a1.31,1.31,0,0,0,1.44-.33l1.19-1.32a1.3,1.3,0,0,1,2.09.24l.16.3a1.3,1.3,0,0,0,2,.35l.82-.71a1.31,1.31,0,0,1,1.83.13l.16.18a1.31,1.31,0,0,0,1.51.33,25.51,25.51,0,0,1,3.65-1.43c.25,0,.75,1.24,1.09,2.18a1.27,1.27,0,0,0,1.53.75c1.32-.36,3.34-.79,3.52-.22a18.77,18.77,0,0,1,0,3.71,1.23,1.23,0,0,0,1.53,1.2l2.05-.43a1.24,1.24,0,0,1,1.53,1.16l0,2.43a1.23,1.23,0,0,0,1.37,1.19l2.67-.22a1.26,1.26,0,0,1,1.32.87l.86,3a1.21,1.21,0,0,0,.75.79l3.74,1.39"/><path class="cls-44" d="M87.54,142.83,89.18,141a1.33,1.33,0,0,1,1.13-.43l.76.09a1.31,1.31,0,0,0,1.31-.69l.81-1.58a1.3,1.3,0,0,1,2.08-.3l.23.25a1.3,1.3,0,0,0,2-.17l.61-.89a1.31,1.31,0,0,1,1.8-.35l.2.14a1.31,1.31,0,0,0,1.54-.07,25.51,25.51,0,0,1,3.16-2.32c.25,0,1,1,1.62,1.83a1.27,1.27,0,0,0,1.67.33c1.19-.68,3-1.63,3.34-1.12a18.77,18.77,0,0,1,1,3.57,1.23,1.23,0,0,0,1.79.77l1.87-.94a1.24,1.24,0,0,1,1.78.73l.6,2.35a1.23,1.23,0,0,0,1.63.8l2.53-.9a1.26,1.26,0,0,1,1.5.5l1.59,2.64a1.21,1.21,0,0,0,.93.57l4,.38"/><path class="cls-44" d="M85.71,155l1.06-2.21a1.33,1.33,0,0,1,1-.73l.76-.13a1.31,1.31,0,0,0,1.07-1l.34-1.75a1.3,1.3,0,0,1,1.92-.87l.29.18a1.3,1.3,0,0,0,1.88-.72l.34-1a1.31,1.31,0,0,1,1.63-.83l.23.08a1.31,1.31,0,0,0,1.46-.5,25.51,25.51,0,0,1,2.39-3.11c.23-.11,1.28.68,2.06,1.31a1.27,1.27,0,0,0,1.7-.14c1-1,2.45-2.4,2.9-2a18.77,18.77,0,0,1,1.95,3.16,1.23,1.23,0,0,0,1.93.24l1.54-1.42a1.24,1.24,0,0,1,1.91.21l1.23,2.09a1.23,1.23,0,0,0,1.78.31l2.18-1.56a1.26,1.26,0,0,1,1.58.06l2.26,2.09a1.21,1.21,0,0,0,1,.29l3.93-.74"/><path class="cls-44" d="M87.86,163.76l1.06-2.21a1.33,1.33,0,0,1,1-.73l.76-.13a1.31,1.31,0,0,0,1.07-1l.34-1.75a1.3,1.3,0,0,1,1.92-.87l.29.18a1.3,1.3,0,0,0,1.88-.72l.34-1a1.31,1.31,0,0,1,1.63-.83l.23.08a1.31,1.31,0,0,0,1.46-.5,25.51,25.51,0,0,1,2.39-3.11c.23-.11,1.28.68,2.06,1.31a1.27,1.27,0,0,0,1.7-.14c1-1,2.45-2.4,2.9-2a18.77,18.77,0,0,1,1.95,3.16,1.23,1.23,0,0,0,1.93.24l1.54-1.42a1.24,1.24,0,0,1,1.91.21l1.23,2.09a1.23,1.23,0,0,0,1.78.31l2.18-1.56a1.26,1.26,0,0,1,1.58.06l2.26,2.09a1.21,1.21,0,0,0,1,.29l3.93-.74"/><path class="cls-44" d="M94.37,171l1.06-2.21a1.33,1.33,0,0,1,1-.73l.76-.13a1.31,1.31,0,0,0,1.07-1l.34-1.75a1.3,1.3,0,0,1,1.92-.87l.29.18a1.3,1.3,0,0,0,1.88-.72l.34-1a1.31,1.31,0,0,1,1.63-.83l.23.08a1.31,1.31,0,0,0,1.46-.5,25.51,25.51,0,0,1,2.39-3.11c.23-.11,1.28.68,2.06,1.31a1.27,1.27,0,0,0,1.7-.14c1-1,2.45-2.4,2.9-2a18.77,18.77,0,0,1,1.95,3.16,1.23,1.23,0,0,0,1.93.24l1.54-1.42a1.24,1.24,0,0,1,1.91.21l1.23,2.09a1.23,1.23,0,0,0,1.78.31l2.18-1.56a1.26,1.26,0,0,1,1.58.06l2.26,2.09a1.21,1.21,0,0,0,1,.29l3.93-.74"/><circle class="cls-45" cx="120.03" cy="137.04" r="22.88"/><circle class="cls-46" cx="102.82" cy="152.47" r="5.02"/><circle class="cls-47" cx="104.01" cy="161.51" r="5.02"/><circle class="cls-48" cx="104.61" cy="170.26" r="5.02"/><circle class="cls-49" cx="106.88" cy="178.66" r="5.02"/><circle class="cls-50" cx="139.43" cy="140.94" r="4.45"/><circle class="cls-51" cx="140.26" cy="134.41" r="4.45"/><circle class="cls-52" cx="140.26" cy="127.74" r="4.45"/><circle class="cls-53" cx="135.81" cy="122.54" r="4.45"/><circle class="cls-54" cx="130.42" cy="118.09" r="4.45"/><circle class="cls-55" cx="122.21" cy="116.24" r="4.45"/><circle class="cls-56" cx="115.54" cy="116.24" r="4.45"/><circle class="cls-57" cx="109.84" cy="118.85" r="4.45"/><circle class="cls-58" cx="104.01" cy="121.53" r="4.45"/><circle class="cls-59" cx="102.25" cy="148.25" r="4.45"/><circle class="cls-60" cx="99.36" cy="141.84" r="4.45"/><circle class="cls-61" cx="98.54" cy="134.41" r="4.45"/><circle class="cls-62" cx="100.32" cy="127.74" r="4.45"/><path class="cls-20" d="M524.79,325l-46.45,11.14-24.71-4.51s-37.2,105.91-39.7,117.94,17.81,123.3,17.81,123.3h24.56s2.51-31.58,0-60.15S449,469.13,449,463.11s32.84-69.18,32.84-69.18,7.72,37.67,10.75,64.66c5.34,47.62-9.35,117.79-9.35,117.79h27.53s10.14-19.25,18.66-65.86-8.69-44.68.93-82C545.76,368.79,524.79,325,524.79,325Z"/><path class="cls-63" d="M177.49,310.93l0,.19a25.15,25.15,0,0,1-6.76.73c-3.63,0-18.49-2.05-24.68-2.86,4-2.92,21-14,21-14l4.77-.73c2.07,1.48,4.78,3.84,5.64,6.49C178.75,304.7,177.72,309.88,177.49,310.93Z"/><path class="cls-36" d="M186.47,309.66a21,21,0,0,1-9,1.27c.23-1.05,1.26-6.22,0-10.22-.87-2.65-3.57-5-5.64-6.49,1-.16,1.82-.28,1.88-.31s8.42-1.9,11-3a5.37,5.37,0,0,1,3.24-.18c.32,2.43,1,7.58,1,10.14C189.08,304.28,188.43,308.76,186.47,309.66Z"/><path class="cls-36" d="M179.94,271.13l-.15,0c-1.24.22-14.55,8.32-15.36,8.65s-10.75,4.71-10.75,4.71l-12.37,7.56c-3.85,0-12.83-2.73-13.95-2.73a8.81,8.81,0,0,1-3.42-.92s-8.91-7.81-10.62-8.91.25-.73-4-2.19-7.45-2.56-10.38-2.81a23.69,23.69,0,0,0-9.16.86c-2.92,1-2.31,2.32-1.58,3.17s4,1,5.61.55,5.61.92,5.61.92a31.66,31.66,0,0,0-7.81,1.41c-2.92,1.15-6.1,2-5.67,4.08s2.87,1.34,3.84,1.41c-1.7,1.53-2.5,2.07-1.65,3.6s3.58.61,3.78.55c0,.16-.66,2.44,2.63,2.56s9.52,0,11.6,1,5.55,3.23,5.55,3.23l12.7-3.29.16,0c.72,2.16,1.19,6.17,1.49,10.89a51.85,51.85,0,0,1-1.46,13.7c-3.27,1.23-10.92,3.78-15.55,2.65-6-1.46-15.95-13.18-19.7-22s-12.31-43.14-10-51.25c4-14.45,28.35-15.26,37.3-15.26,5.81,0,9.27,9.22,17.54,9.2,4.46,0,6.78-10,9.48-9.75C169.88,235.29,171.8,239.73,179.94,271.13Z"/><path class="cls-64" d="M141.64,289.46l-17.11,5.07-.16,0-12.7,3.29s-3.48-2.19-5.55-3.23-8.18-.92-11.6-1-2.68-2.4-2.63-2.56c-.2.06-2.95.92-3.78-.55s-.06-2.07,1.65-3.6c-1-.06-3.41.67-3.84-1.41s2.75-2.93,5.67-4.08A31.66,31.66,0,0,1,99.41,280s-4-1.41-5.61-.92-4.88.31-5.61-.55-1.34-2.2,1.58-3.17a23.69,23.69,0,0,1,9.16-.86c2.93.25,6.1,1.35,10.38,2.81s2.32,1.1,4,2.19,10.62,8.91,10.62,8.91a8.81,8.81,0,0,0,3.42.92l11.16.09Z"/><path class="cls-65" d="M189.92,289.82a1.72,1.72,0,0,1-2,.91,5.37,5.37,0,0,0-3.24.18c-2.63,1.1-10.86,2.93-11,3s-.86.14-1.88.31l-4.77.73s-17,11.12-21,14l-.13.1c-3.05,2.26-15.34,7.55-19.74,9.42l-.21.09-.35.15-1,.38a51.85,51.85,0,0,0,1.46-13.7c-.31-4.72-.77-8.74-1.49-10.89l17.11-5.07,12-4.95s9.93-4.39,10.75-4.71,14.12-8.42,15.36-8.65l.15,0a4.06,4.06,0,0,1,4.12,3.26,2.66,2.66,0,0,1-.31,1.39s2.44,0,2.93,2a17.81,17.81,0,0,1,.43,4.15s1.53-.61,2.08.61.24,3.85-.43,4.22S191.19,287.81,189.92,289.82Z"/><path class="cls-66" d="M519.46,201.46v0c0,1.88-1.76,16.66-4.94,13.34-2.15-2.25-9.37-3.38-14.08-3.88,4.28-5.4,12.78-20,12.78-20S519.46,199.72,519.46,201.46Z"/><path class="cls-67" d="M496.51,306.21c-.78,1.25-18.43,8-19.47,8.55-1.93,1-20,2.41-29.64,2.82v-.75s-13.95.22-19.61-5.23-6.32-9.37-3.7-20.27,16.13-62.55,18.09-65.82,6.1-11.11,11.33-12.64a64,64,0,0,0,9.68-4.07c-.67.75-1.15,1.39-1.13,1.72.06.82-1.85,2.83-1.74,3.38s-.82,2.28-1.14,3.32a13.64,13.64,0,0,0-.82,3.65c-.1,1.63.55,2.45,2.78,7.08s5,9.75,5,9.75l4.21,12.52.54-.42c.42,2.44,1.34,7.42,2.68,15,1.67,9.52,6.81,21.66,12.06,30.17C485.27,295.21,496.51,306.21,496.51,306.21Z"/><path class="cls-68" d="M548.74,242.84q-.09,1.36-.22,2.79c-1.31,14.09-8.86,29.2-10.75,40.68s-6.46,54.27-6.46,54.27S482,349.8,467.45,346s-20-9.87-20-9.87V317.57c9.63-.41,27.71-1.81,29.64-2.82a8.83,8.83,0,0,0,2.82-3.09l14-4.9c2.74,2.89,5.59,4.6,9.58,4.84,7.41.44,24.12-21.36,27.6-29.06C533.37,277.49,542.62,256.64,548.74,242.84Z"/><path class="cls-69" d="M484.45,206.22a12,12,0,0,1-3.05-2.67c-.53-.77-1.1-1.2-1.68-.8-1-.77-2.93-2.22-4.37-2.3-2-.11-3.49-1.42-4.85-.44s-2,4.25-2,4.25-.93-.65-2.18,1c-.75,1-2.14,2.39-3.13,3.51-.67.75-1.15,1.39-1.13,1.72.06.82-1.85,2.83-1.74,3.38s-.82,2.28-1.14,3.32a13.64,13.64,0,0,0-.82,3.65c-.1,1.63.55,2.45,2.78,7.08s5,9.75,5,9.75l4.21,12.52.54-.42L483.35,240c-1.22-2.7-2.84-7-1.37-8.06,2.18-1.6,3.49-10.6,3.49-10.6l.27-.17c0-2-.07-5.07.05-7.34C486,210.25,485,206.44,484.45,206.22Zm-5,6c-.33,1.26-.49,3.05-1.85,2.07a20.76,20.76,0,0,1-3.81-4.36c0-.22.05-3.6,0-4s-.49-1.41.38-1.36a36.64,36.64,0,0,1,4.23,1.26,8.05,8.05,0,0,0,.29.81C479.82,209.43,479.76,211,479.44,212.27Z"/><path class="cls-70" d="M497.49,301.78l-14,4.9-2.93,1s-1.42-6.32-.87-10.24c.34-2.44,8.1-9.13,8.56-9.15.46.74,1.38,2.94,1.86,3.63A91,91,0,0,0,497.49,301.78Z"/><path class="cls-71" d="M453.62,290.45l1.4-22.67-5.64,25.15s4.77,1,5.31,1.22,12.86,2.06,17.44,1.74c2.43-.17-19,.45,6.71-1.71Z"/><path class="cls-72" d="M545.91,219.48c-2-2.91-7.27-7-12.93-10.32-4.12-2.43-10.4-5.94-13.51-7.67,0,1.88-1.76,16.66-4.94,13.34-2.15-2.25-9.37-3.38-14.08-3.88a9.45,9.45,0,0,1-1.75,1.84l-13,8.4-.27.17s-1.31,9-3.49,10.6c-1.46,1.07.15,5.36,1.37,8.06l-12.45,9.78c.42,2.44,1.34,7.42,2.68,15a89.1,89.1,0,0,0,11.07,29.3l.42.67q.69,1.1,1.42,2.14a91,91,0,0,0,7.41,9.84c2.74,2.89,5.59,4.6,9.58,4.84,7.41.44,24.12-21.36,27.6-29.06,2.28-5,11.54-25.89,17.66-39.7C549.57,230.32,547.8,222.19,545.91,219.48Z"/><path class="cls-73" d="M512.82,270.56s1.31,2,.32,3.05-3.37,3.21-3.37,3.21-6.32-5-8.61-9.43a15.57,15.57,0,0,0,2.29-3.26,10.5,10.5,0,0,1,2.45-3.32c.38-.22,2.83-2.4,3.7-2s.24,2.8.22,2.89c.18-.14,4-3.11,5.12-1a3.83,3.83,0,0,1-.54,4.09s1.8-.33,2,1.25S512.82,270.56,512.82,270.56Z"/><polygon class="cls-74" points="483.35 240.03 499.91 266.53 502.39 263.19 483.35 240.03"/><path class="cls-75" d="M240.11,255.75h0a.53.53,0,0,0-.07-.15h0a45.73,45.73,0,0,0-.74-9,37.84,37.84,0,0,0-9.61-18.38c-.73-.84-7.85-3.74-8.62-4.89s-4.05,1.51-.73,5.43,6.28,5.64,5.73,6.05c-.34.26-4.19-2.17-10.83-3.33-9.94-1.74-17.33-1.88-17.36.75a2.05,2.05,0,0,0,2.35,2.23c-1.47.13-8.89.89-8.91,3.25,0,2.62,5,2,5,2s-4.86,1-.11,2.45,13.18,2.05,13.18,2.05-9.33-.4-8.62,2.19,10.24,1.15,13.69,1.75,6.57,2.22,11,5.5a30.65,30.65,0,0,1,3,2.41l.11,1.93c-.37,7.84-.74,29,4.89,45.18a8.13,8.13,0,0,0,12.4,3.92,34.65,34.65,0,0,0,6-5.39S242.91,266.37,240.11,255.75Z"/><path class="cls-76" d="M309.06,156.39s-17.45-2.08-24.79,4.25c-6.76-10.39-1.62-26.17,13.38-26.62s35.25-3.93,43.44,11.51,4.33,28.53.36,37.51c-3.69-7.56-9.79-4.69-12.11,0a100.12,100.12,0,0,1-10.2-24.2s14.18,1.82,14.18-1.51C333.32,155.34,317.73,159.38,309.06,156.39Z"/></g></svg>